<svg width="49" height="49" viewBox="0 0 49 49" fill="none" xmlns="http://www.w3.org/2000/svg">
<path d="M27.046 24.5004L34.7382 16.8081L36.3245 15.2218C36.5585 14.9878 36.5585 14.6076 36.3245 14.3736L34.6272 12.6762C34.3932 12.4422 34.0129 12.4422 33.7789 12.6762L24.5004 21.9548L15.2218 12.6755C14.9878 12.4415 14.6076 12.4415 14.3736 12.6755L12.6755 14.3728C12.4415 14.6068 12.4415 14.9871 12.6755 15.2211L21.9548 24.5004L12.6755 33.7789C12.4415 34.0129 12.4415 34.3932 12.6755 34.6272L14.3728 36.3245C14.6068 36.5585 14.9871 36.5585 15.2211 36.3245L24.5004 27.046L32.1926 34.7382L33.7789 36.3245C34.0129 36.5585 34.3932 36.5585 34.6272 36.3245L36.3245 34.6272C36.5585 34.3932 36.5585 34.0129 36.3245 33.7789L27.046 24.5004Z" fill="white"/>
</svg>
