<svg width="24" height="24" viewBox="0 0 24 24" fill="none" xmlns="http://www.w3.org/2000/svg">
<path d="M14.546 12.0004L22.2382 4.30813L23.8245 2.72183C24.0585 2.48782 24.0585 2.10756 23.8245 1.87355L22.1272 0.17625C21.8932 -0.05775 21.5129 -0.05775 21.2789 0.17625L12.0004 9.45479L2.72184 0.1755C2.48783 -0.0585 2.10757 -0.0585 1.87356 0.1755L0.175508 1.8728C-0.0585025 2.10681 -0.0585025 2.48707 0.175508 2.72108L9.4548 12.0004L0.175508 21.2789C-0.0585025 21.5129 -0.0585025 21.8932 0.175508 22.1272L1.87281 23.8245C2.10682 24.0585 2.48708 24.0585 2.72109 23.8245L12.0004 14.546L19.6926 22.2382L21.2789 23.8245C21.5129 24.0585 21.8932 24.0585 22.1272 23.8245L23.8245 22.1272C24.0585 21.8932 24.0585 21.5129 23.8245 21.2789L14.546 12.0004Z" fill="#00812A"/>
</svg>
