<svg width="211" height="29" viewBox="0 0 211 29" fill="none" xmlns="http://www.w3.org/2000/svg">
<g clip-path="url(#clip0_139_3732)">
<path d="M0 6.69239C0 2.99629 3.0758 0 6.86998 0C10.6642 0 13.74 2.99629 13.74 6.69239V13.3848H6.86998C3.0758 13.3848 0 10.3885 0 6.69239Z" fill="#00812A"/>
<path d="M0 21.6836C0 25.3797 3.0758 28.376 6.86998 28.376C10.6642 28.376 13.74 25.3797 13.74 21.6836V14.9912H6.86998C3.0758 14.9912 0 17.9875 0 21.6836Z" fill="#00812A"/>
<path d="M29.1287 6.69239C29.1287 2.99629 26.0529 0 22.2587 0C18.4644 0 15.3887 2.99629 15.3887 6.69239V13.3848H22.2587C26.0529 13.3848 29.1287 10.3885 29.1287 6.69239Z" fill="#00812A"/>
<path d="M29.1287 21.6836C29.1287 25.3797 26.0529 28.376 22.2587 28.376C18.4644 28.376 15.3887 25.3797 15.3887 21.6836V14.9912H22.2587C26.0529 14.9912 29.1287 17.9875 29.1287 21.6836Z" fill="#00812A"/>
<path d="M34.8406 22.2406V8.00638H46.277V22.2406H43.2226V10.5182H37.9047V22.2406H34.8406ZM63.0412 15.104C63.0412 16.201 62.9028 17.2006 62.626 18.1028C62.3492 18.9985 61.9275 19.7709 61.3608 20.42C60.8007 21.069 60.0889 21.5688 59.2257 21.9194C58.3625 22.2633 57.341 22.4354 56.1615 22.4354C54.982 22.4354 53.9605 22.2633 53.0973 21.9194C52.2341 21.5688 51.5191 21.069 50.9523 20.42C50.3922 19.7709 49.9738 18.9952 49.697 18.093C49.4203 17.1908 49.2819 16.188 49.2819 15.0845C49.2819 13.6111 49.5257 12.3292 50.0133 11.2388C50.5076 10.1418 51.2654 9.2915 52.2868 8.68786C53.3082 8.08422 54.6064 7.78244 56.1813 7.78244C57.7496 7.78244 59.0379 8.08422 60.0461 8.68786C61.0609 9.2915 61.8122 10.1418 62.2998 11.2388C62.794 12.3357 63.0412 13.6241 63.0412 15.104ZM52.4943 15.104C52.4943 16.0971 52.6195 16.9539 52.8699 17.6744C53.127 18.3884 53.5257 18.9401 54.066 19.3295C54.6064 19.7125 55.3048 19.9039 56.1615 19.9039C57.0314 19.9039 57.7365 19.7125 58.2768 19.3295C58.8172 18.9401 59.2093 18.3884 59.4531 17.6744C59.7035 16.9539 59.8287 16.0971 59.8287 15.104C59.8287 13.6111 59.5453 12.4363 58.9786 11.5795C58.4119 10.7227 57.4795 10.2944 56.1813 10.2944C55.318 10.2944 54.6129 10.4891 54.066 10.8785C53.5257 11.2615 53.127 11.8132 52.8699 12.5337C52.6195 13.2477 52.4943 14.1045 52.4943 15.104ZM77.4726 22.2406H74.4183V10.5182H70.8796C70.8005 11.1284 70.7149 11.7937 70.6226 12.5142C70.5303 13.2346 70.4348 13.9617 70.3359 14.6951C70.2371 15.4286 70.1317 16.1263 70.0196 16.7884C69.9142 17.4504 69.8088 18.0314 69.7033 18.5312C69.532 19.362 69.298 20.0694 69.0016 20.6537C68.7116 21.2313 68.3129 21.6727 67.8055 21.9778C67.3047 22.2828 66.649 22.4354 65.8385 22.4354C65.5683 22.4354 65.308 22.4159 65.0576 22.3769C64.8138 22.338 64.5864 22.286 64.3756 22.2212V19.7482C64.5469 19.8066 64.7183 19.8552 64.8895 19.8942C65.0609 19.9266 65.2487 19.9429 65.453 19.9429C65.7166 19.9429 65.934 19.8585 66.1054 19.6897C66.2833 19.5145 66.4414 19.2192 66.5798 18.8038C66.7182 18.3819 66.8566 17.8009 66.9949 17.061C67.0543 16.7364 67.1334 16.2788 67.2322 15.6882C67.3311 15.091 67.4431 14.3933 67.5683 13.5949C67.6935 12.7901 67.822 11.9138 67.9538 10.9661C68.0921 10.0185 68.224 9.0319 68.3492 8.00638H77.4726V22.2406ZM81.1199 22.2406V8.00638H84.1844V22.2406H81.1199ZM93.9597 10.3138C93.3734 10.3138 92.8526 10.4274 92.3979 10.6546C91.9502 10.8752 91.571 11.1966 91.2619 11.6185C90.9582 12.0403 90.7278 12.5499 90.5697 13.1471C90.4117 13.7442 90.3322 14.416 90.3322 15.1624C90.3322 16.1685 90.4576 17.0286 90.7083 17.7426C90.9652 18.45 91.36 18.992 91.8941 19.3685C92.4282 19.7384 93.1165 19.9234 93.9597 19.9234C94.5468 19.9234 95.1331 19.8585 95.7194 19.7287C96.3127 19.5989 96.955 19.4139 97.6472 19.1738V21.7052C97.0079 21.9648 96.3781 22.1498 95.7591 22.2601C95.1393 22.3769 94.444 22.4354 93.6732 22.4354C92.1838 22.4354 90.9582 22.1336 89.9967 21.5299C89.0406 20.9198 88.332 20.0694 87.8711 18.979C87.4102 17.8821 87.1789 16.6034 87.1789 15.143C87.1789 14.0655 87.3276 13.0789 87.6243 12.1831C87.9209 11.2875 88.3554 10.5118 88.9284 9.85625C89.5023 9.20062 90.2108 8.69438 91.054 8.33738C91.8972 7.98038 92.8658 7.80192 93.9597 7.80192C94.6784 7.80192 95.3962 7.89272 96.1149 8.07448C96.8398 8.24972 97.5319 8.49314 98.1906 8.80474L97.2018 11.2582C96.6615 11.0051 96.118 10.7844 95.5714 10.5962C95.0241 10.408 94.4868 10.3138 93.9597 10.3138ZM109.578 22.2406L108.53 18.8524H103.262L102.214 22.2406H98.9124L104.012 7.94794H107.759L112.879 22.2406H109.578ZM107.799 16.321L106.751 13.0107C106.684 12.7901 106.596 12.5077 106.483 12.1637C106.378 11.8132 106.269 11.4595 106.157 11.1025C106.052 10.739 105.966 10.4241 105.9 10.158C105.835 10.4241 105.742 10.7552 105.624 11.1511C105.512 11.5406 105.403 11.9106 105.298 12.2611C105.192 12.6115 105.116 12.8615 105.07 13.0107L104.032 16.321H107.799ZM113.492 18.1125V15.6785H118.8V18.1125H113.492ZM134.348 15.104C134.348 16.201 134.21 17.2006 133.933 18.1028C133.657 18.9985 133.235 19.7709 132.668 20.42C132.108 21.069 131.396 21.5688 130.533 21.9194C129.669 22.2633 128.648 22.4354 127.468 22.4354C126.289 22.4354 125.268 22.2633 124.404 21.9194C123.541 21.5688 122.826 21.069 122.259 20.42C121.7 19.7709 121.281 18.9952 121.004 18.093C120.727 17.1908 120.589 16.188 120.589 15.0845C120.589 13.6111 120.833 12.3292 121.32 11.2388C121.815 10.1418 122.572 9.2915 123.594 8.68786C124.615 8.08422 125.913 7.78244 127.488 7.78244C129.057 7.78244 130.345 8.08422 131.353 8.68786C132.368 9.2915 133.119 10.1418 133.607 11.2388C134.101 12.3357 134.348 13.6241 134.348 15.104ZM123.801 15.104C123.801 16.0971 123.926 16.9539 124.177 17.6744C124.434 18.3884 124.833 18.9401 125.373 19.3295C125.913 19.7125 126.612 19.9039 127.468 19.9039C128.339 19.9039 129.043 19.7125 129.584 19.3295C130.124 18.9401 130.516 18.3884 130.76 17.6744C131.011 16.9539 131.135 16.0971 131.135 15.104C131.135 13.6111 130.852 12.4363 130.286 11.5795C129.719 10.7227 128.786 10.2944 127.488 10.2944C126.625 10.2944 125.92 10.4891 125.373 10.8785C124.833 11.2615 124.434 11.8132 124.177 12.5337C123.926 13.2477 123.801 14.1045 123.801 15.104ZM149.185 22.2406H146.13V16.0971H140.408V22.2406H137.343V8.00638H140.408V13.5852H146.13V8.00638H149.185V22.2406ZM164.279 22.2406H161.224V10.5182H157.686C157.606 11.1284 157.521 11.7937 157.429 12.5142C157.336 13.2346 157.241 13.9617 157.142 14.6951C157.043 15.4286 156.937 16.1263 156.826 16.7884C156.72 17.4504 156.615 18.0314 156.509 18.5312C156.338 19.362 156.104 20.0694 155.808 20.6537C155.518 21.2313 155.119 21.6727 154.612 21.9778C154.111 22.2828 153.455 22.4354 152.644 22.4354C152.374 22.4354 152.114 22.4159 151.863 22.3769C151.62 22.338 151.392 22.286 151.182 22.2212V19.7482C151.353 19.8066 151.525 19.8552 151.696 19.8942C151.867 19.9266 152.055 19.9429 152.259 19.9429C152.523 19.9429 152.74 19.8585 152.911 19.6897C153.09 19.5145 153.248 19.2192 153.386 18.8038C153.524 18.3819 153.663 17.8009 153.801 17.061C153.86 16.7364 153.94 16.2788 154.038 15.6882C154.137 15.091 154.249 14.3933 154.374 13.5949C154.5 12.7901 154.628 11.9138 154.76 10.9661C154.898 10.0185 155.03 9.0319 155.155 8.00638H164.279V22.2406ZM176.773 22.2406L175.725 18.8524H170.456L169.409 22.2406H166.107L171.208 7.94794H174.954L180.074 22.2406H176.773ZM174.994 16.321L173.946 13.0107C173.88 12.7901 173.791 12.5077 173.679 12.1637C173.574 11.8132 173.465 11.4595 173.353 11.1025C173.247 10.739 173.162 10.4241 173.096 10.158C173.029 10.4241 172.938 10.7552 172.819 11.1511C172.707 11.5406 172.598 11.9106 172.493 12.2611C172.387 12.6115 172.312 12.8615 172.266 13.0107L171.228 16.321H174.994ZM181.903 8.00638H184.661V14.8801C184.661 15.2176 184.654 15.5908 184.641 15.9998C184.634 16.4087 184.621 16.8111 184.601 17.207C184.588 17.5965 184.575 17.9373 184.562 18.2293C184.549 18.5214 184.536 18.7162 184.522 18.8135H184.581L191.253 8.00638H194.921V22.2406H192.192V15.4059C192.192 15.0423 192.199 14.6465 192.213 14.2181C192.226 13.7897 192.242 13.3742 192.262 12.9718C192.288 12.5694 192.311 12.2221 192.331 11.9301C192.35 11.6314 192.364 11.4335 192.371 11.3361H192.291L185.59 22.2406H181.903V8.00638ZM193.547 3.32324C193.475 4.01126 193.277 4.61815 192.954 5.14391C192.631 5.66966 192.127 6.07858 191.442 6.37067C190.756 6.66275 189.833 6.80879 188.674 6.80879C187.481 6.80879 186.552 6.66924 185.886 6.39014C185.221 6.10455 184.747 5.70212 184.463 5.18285C184.18 4.6571 184.008 4.03723 183.949 3.32324H186.647C186.706 4.0567 186.895 4.54351 187.211 4.78366C187.527 5.01733 188.035 5.13417 188.733 5.13417C189.313 5.13417 189.787 5.00436 190.156 4.74472C190.525 4.48509 190.746 4.01126 190.819 3.32324H193.547ZM210.41 22.2406H207.355V16.0971H201.632V22.2406H198.568V8.00638H201.632V13.5852H207.355V8.00638H210.41V22.2406Z" fill="black"/>
</g>
<defs>
<clipPath id="clip0_139_3732">
<rect width="211" height="29" fill="white"/>
</clipPath>
</defs>
</svg>
