<svg width="135" height="18" viewBox="0 0 135 18" fill="none" xmlns="http://www.w3.org/2000/svg">
<g clip-path="url(#clip0_188_3800)">
<path d="M0.333496 4.1539C0.333496 1.85976 2.28685 0 4.69642 0C7.10604 0 9.05937 1.85976 9.05937 4.1539V8.30778H4.69642C2.28685 8.30778 0.333496 6.44804 0.333496 4.1539Z" fill="white"/>
<path d="M0.333496 13.4586C0.333496 15.7527 2.28685 17.6125 4.69642 17.6125C7.10604 17.6125 9.05937 15.7527 9.05937 13.4586V9.30469H4.69642C2.28685 9.30469 0.333496 11.1644 0.333496 13.4586Z" fill="white"/>
<path d="M18.8323 4.1539C18.8323 1.85976 16.879 0 14.4694 0C12.0598 0 10.1064 1.85976 10.1064 4.1539V8.30778H14.4694C16.879 8.30778 18.8323 6.44804 18.8323 4.1539Z" fill="white"/>
<path d="M18.8323 13.4586C18.8323 15.7527 16.879 17.6125 14.4694 17.6125C12.0598 17.6125 10.1064 15.7527 10.1064 13.4586V9.30469H14.4694C16.879 9.30469 18.8323 11.1644 18.8323 13.4586Z" fill="white"/>
<path d="M22.4595 13.8043V4.96928H29.7224V13.8043H27.7827V6.52837H24.4054V13.8043H22.4595ZM40.3688 9.37469C40.3688 10.0556 40.281 10.676 40.1052 11.236C39.9294 11.792 39.6616 12.2714 39.3017 12.6743C38.946 13.0771 38.494 13.3873 37.9458 13.6049C37.3976 13.8184 36.7489 13.9252 35.9998 13.9252C35.2507 13.9252 34.602 13.8184 34.0538 13.6049C33.5056 13.3873 33.0515 13.0771 32.6916 12.6743C32.3359 12.2714 32.0701 11.7899 31.8944 11.23C31.7186 10.67 31.6307 10.0475 31.6307 9.3626C31.6307 8.44808 31.7856 7.65242 32.0953 6.97558C32.4091 6.29474 32.8904 5.76693 33.539 5.39226C34.1877 5.01759 35.0122 4.83028 36.0124 4.83028C37.0084 4.83028 37.8265 5.01759 38.4668 5.39226C39.1113 5.76693 39.5884 6.29474 39.8981 6.97558C40.2119 7.65642 40.3688 8.45613 40.3688 9.37469ZM33.6709 9.37469C33.6709 9.99113 33.7504 10.5229 33.9094 10.9701C34.0726 11.4133 34.3258 11.7557 34.669 11.9974C35.0122 12.2352 35.4557 12.354 35.9998 12.354C36.5522 12.354 37 12.2352 37.3432 11.9974C37.6863 11.7557 37.9353 11.4133 38.0902 10.9701C38.2492 10.5229 38.3287 9.99113 38.3287 9.37469C38.3287 8.44808 38.1487 7.71888 37.7888 7.18707C37.429 6.65527 36.8368 6.38942 36.0124 6.38942C35.4641 6.38942 35.0163 6.51028 34.669 6.752C34.3258 6.98967 34.0726 7.33212 33.9094 7.77933C33.7504 8.2225 33.6709 8.7543 33.6709 9.37469ZM49.5338 13.8043H47.5941V6.52837H45.3468C45.2966 6.90708 45.2422 7.32002 45.1836 7.76724C45.125 8.21441 45.0643 8.66567 45.0015 9.12088C44.9388 9.57614 44.8718 10.0092 44.8007 10.4202C44.7337 10.8311 44.6668 11.1917 44.5998 11.5019C44.491 12.0176 44.3424 12.4567 44.1541 12.8193C43.97 13.1779 43.7168 13.4518 43.3945 13.6412C43.0765 13.8305 42.6601 13.9252 42.1454 13.9252C41.9738 13.9252 41.8085 13.9131 41.6495 13.8889C41.4946 13.8648 41.3502 13.8325 41.2163 13.7922V12.2573C41.3251 12.2936 41.4339 12.3237 41.5427 12.3479C41.6515 12.3681 41.7708 12.3782 41.9005 12.3782C42.0679 12.3782 42.206 12.3258 42.3149 12.221C42.4278 12.1122 42.5283 11.9289 42.6161 11.6711C42.7041 11.4092 42.7919 11.0486 42.8798 10.5894C42.9175 10.3879 42.9677 10.1039 43.0304 9.73732C43.0932 9.36665 43.1644 8.93357 43.2439 8.43804C43.3234 7.93846 43.405 7.39457 43.4887 6.80636C43.5766 6.21819 43.6603 5.6058 43.7398 4.96928H49.5338V13.8043ZM51.8501 13.8043V4.96928H53.7963V13.8043H51.8501ZM60.0043 6.40146C59.632 6.40146 59.3012 6.472 59.0124 6.613C58.7281 6.74995 58.4873 6.9494 58.291 7.21125C58.0982 7.47311 57.9518 7.78937 57.8514 8.16005C57.7511 8.53067 57.7006 8.94766 57.7006 9.41096C57.7006 10.0354 57.7802 10.5693 57.9395 11.0124C58.1026 11.4515 58.3533 11.7879 58.6925 12.0216C59.0317 12.2512 59.4688 12.3661 60.0043 12.3661C60.3772 12.3661 60.7495 12.3258 61.1218 12.2452C61.4986 12.1646 61.9065 12.0498 62.3461 11.9008V13.472C61.9402 13.6331 61.5401 13.7479 61.147 13.8164C60.7535 13.8889 60.3119 13.9252 59.8224 13.9252C58.8765 13.9252 58.0982 13.7379 57.4875 13.3632C56.8803 12.9845 56.4304 12.4567 56.1376 11.7799C55.8449 11.099 55.698 10.3053 55.698 9.39887C55.698 8.73012 55.7925 8.11773 55.9809 7.56174C56.1693 7.00581 56.4452 6.52437 56.8091 6.11747C57.1735 5.71052 57.6235 5.39631 58.159 5.17472C58.6945 4.95314 59.3096 4.84237 60.0043 4.84237C60.4607 4.84237 60.9166 4.89873 61.373 5.01155C61.8334 5.12032 62.2729 5.2714 62.6913 5.46481L62.0633 6.98767C61.7201 6.83054 61.375 6.69354 61.0279 6.57673C60.6803 6.45991 60.3391 6.40146 60.0043 6.40146ZM69.9228 13.8043L69.2573 11.7013H65.9117L65.2462 13.8043H63.1496L66.3884 4.933H68.7677L72.0193 13.8043H69.9228ZM68.793 10.1301L68.1274 8.07541C68.0854 7.93846 68.029 7.76319 67.9578 7.5497C67.8911 7.33212 67.8218 7.11258 67.7506 6.89099C67.6839 6.66536 67.6295 6.46996 67.5875 6.30478C67.5459 6.46996 67.4871 6.67545 67.4119 6.92117C67.3407 7.16294 67.2715 7.39257 67.2047 7.61011C67.1375 7.82765 67.0895 7.98278 67.0604 8.07541L66.4012 10.1301H68.793ZM72.4085 11.242V9.73127H75.7797V11.242H72.4085ZM85.6537 9.37469C85.6537 10.0556 85.5662 10.676 85.3902 11.236C85.2146 11.792 84.9466 12.2714 84.5867 12.6743C84.2311 13.0771 83.7792 13.3873 83.2308 13.6049C82.6825 13.8184 82.0337 13.9252 81.2846 13.9252C80.5355 13.9252 79.8873 13.8184 79.3389 13.6049C78.7905 13.3873 78.3366 13.0771 77.9767 12.6743C77.6211 12.2714 77.3551 11.7899 77.1796 11.23C77.0035 10.67 76.916 10.0475 76.916 9.3626C76.916 8.44808 77.0708 7.65242 77.3803 6.97558C77.6943 6.29474 78.1754 5.76693 78.8242 5.39226C79.4729 5.01759 80.2972 4.83028 81.2975 4.83028C82.2933 4.83028 83.1117 5.01759 83.752 5.39226C84.3963 5.76693 84.8735 6.29474 85.183 6.97558C85.497 7.65642 85.6537 8.45613 85.6537 9.37469ZM78.9557 9.37469C78.9557 9.99113 79.0353 10.5229 79.1945 10.9701C79.3577 11.4133 79.6109 11.7557 79.954 11.9974C80.2972 12.2352 80.7407 12.354 81.2846 12.354C81.8374 12.354 82.2849 12.2352 82.6281 11.9974C82.9712 11.7557 83.2205 11.4133 83.3752 10.9701C83.5344 10.5229 83.6136 9.99113 83.6136 9.37469C83.6136 8.44808 83.4336 7.71888 83.0741 7.18707C82.7141 6.65527 82.1218 6.38942 81.2975 6.38942C80.7491 6.38942 80.3016 6.51028 79.954 6.752C79.6109 6.98967 79.3577 7.33212 79.1945 7.77933C79.0353 8.2225 78.9557 8.7543 78.9557 9.37469ZM95.0762 13.8043H93.1365V9.99113H89.5021V13.8043H87.5559V4.96928H89.5021V8.43199H93.1365V4.96928H95.0762V13.8043ZM104.662 13.8043H102.722V6.52837H100.475C100.424 6.90708 100.37 7.32002 100.312 7.76724C100.253 8.21441 100.192 8.66567 100.13 9.12088C100.067 9.57614 99.9996 10.0092 99.9289 10.4202C99.8617 10.8311 99.7949 11.1917 99.7277 11.5019C99.6189 12.0176 99.4706 12.4567 99.2822 12.8193C99.0982 13.1779 98.8446 13.4518 98.5227 13.6412C98.2047 13.8305 97.7879 13.9252 97.2731 13.9252C97.1016 13.9252 96.9364 13.9131 96.7772 13.8889C96.6224 13.8648 96.4781 13.8325 96.3445 13.7922V12.2573C96.4533 12.2936 96.5621 12.3237 96.6709 12.3479C96.7797 12.3681 96.8988 12.3782 97.0284 12.3782C97.196 12.3782 97.334 12.3258 97.4427 12.221C97.556 12.1122 97.6564 11.9289 97.7444 11.6711C97.8319 11.4092 97.9199 11.0486 98.0079 10.5894C98.0455 10.3879 98.0959 10.1039 98.1582 9.73732C98.221 9.36665 98.2922 8.93357 98.3718 8.43804C98.4515 7.93846 98.533 7.39457 98.6166 6.80636C98.7046 6.21819 98.7882 5.6058 98.8678 4.96928H104.662V13.8043ZM112.597 13.8043L111.931 11.7013H108.585L107.92 13.8043H105.823L109.062 4.933H111.442L114.693 13.8043H112.597ZM111.467 10.1301L110.801 8.07541C110.759 7.93846 110.703 7.76319 110.632 7.5497C110.565 7.33212 110.496 7.11258 110.424 6.89099C110.358 6.66536 110.303 6.46996 110.261 6.30478C110.219 6.46996 110.161 6.67545 110.086 6.92117C110.015 7.16294 109.945 7.39257 109.879 7.61011C109.811 7.82765 109.763 7.98278 109.734 8.07541L109.075 10.1301H111.467ZM115.855 4.96928H117.606V9.2357C117.606 9.44519 117.602 9.67687 117.593 9.93068C117.589 10.1845 117.581 10.4343 117.568 10.68C117.56 10.9217 117.552 11.1333 117.543 11.3145C117.535 11.4959 117.526 11.6167 117.518 11.6771H117.556L121.793 4.96928H124.122V13.8043H122.389V9.56205C122.389 9.33642 122.393 9.0907 122.402 8.8248C122.41 8.5589 122.421 8.30104 122.433 8.05128C122.45 7.80147 122.465 7.58593 122.477 7.40466C122.489 7.2193 122.498 7.09644 122.502 7.03599H122.452L118.196 13.8043H115.855V4.96928ZM123.249 2.0625C123.203 2.48955 123.078 2.86624 122.873 3.19257C122.667 3.5189 122.347 3.77271 121.912 3.954C121.477 4.1353 120.891 4.22595 120.155 4.22595C119.397 4.22595 118.807 4.13933 118.384 3.96609C117.962 3.78883 117.66 3.53904 117.48 3.21674C117.3 2.89041 117.192 2.50566 117.154 2.0625H118.867C118.905 2.51775 119.025 2.81991 119.225 2.96897C119.426 3.11401 119.749 3.18653 120.192 3.18653C120.56 3.18653 120.862 3.10595 121.096 2.9448C121.33 2.78365 121.471 2.48955 121.517 2.0625H123.249ZM133.958 13.8043H132.019V9.99113H128.384V13.8043H126.438V4.96928H128.384V8.43199H132.019V4.96928H133.958V13.8043Z" fill="white"/>
</g>
<defs>
<clipPath id="clip0_188_3800">
<rect width="134" height="18" fill="white" transform="translate(0.333496)"/>
</clipPath>
</defs>
</svg>
