<svg width="30" height="31" viewBox="0 0 30 31" fill="none" xmlns="http://www.w3.org/2000/svg">
<rect x="0.5" y="1" width="29" height="29" rx="3.5" fill="white" stroke="#C4CFE3"/>
<path d="M7.51952 22.1891H10.2989V15.4393L6.32837 12.4614V20.998C6.32837 21.6571 6.8624 22.1891 7.51952 22.1891Z" fill="#4285F4"/>
<path d="M19.8281 22.1891H22.6075C23.2666 22.1891 23.7986 21.6551 23.7986 20.998V12.4614L19.8281 15.4393" fill="#34A853"/>
<path d="M19.8281 10.2775V15.4392L23.7986 12.4613V10.8731C23.7986 9.40006 22.1171 8.5603 20.9399 9.44373" fill="#FBBC04"/>
<path d="M10.2988 15.439V10.2773L15.0634 13.8508L19.828 10.2773V15.439L15.0634 19.0124" fill="#EA4335"/>
<path d="M6.32837 10.8731V12.4613L10.2989 15.4392V10.2775L9.18712 9.44373C8.00789 8.5603 6.32837 9.40006 6.32837 10.8731Z" fill="#C5221F"/>
</svg>
