<svg width="30" height="31" viewBox="0 0 30 31" fill="none" xmlns="http://www.w3.org/2000/svg">
<rect y="0.5" width="30" height="30" rx="4" fill="url(#paint0_radial_139_3741)"/>
<path d="M15.0033 7.1001C10.7764 7.1001 7.49878 10.1976 7.49878 14.3795C7.49878 16.567 8.39557 18.4582 9.85519 19.7639C9.97714 19.8728 10.0522 20.0266 10.0559 20.1917L10.0972 21.5275C10.1002 21.6258 10.1273 21.7218 10.1761 21.8072C10.2249 21.8925 10.294 21.9646 10.3772 22.017C10.4604 22.0695 10.5552 22.1007 10.6532 22.1079C10.7513 22.1151 10.8496 22.0981 10.9396 22.0584L12.4292 21.4018C12.5549 21.3455 12.6975 21.3361 12.8307 21.3718C13.5155 21.5594 14.2434 21.6607 15.0033 21.6607C19.2302 21.6607 22.5078 18.5632 22.5078 14.3813C22.5078 10.1995 19.2302 7.1001 15.0033 7.1001Z" fill="white"/>
<path d="M10.4968 16.5089L12.7013 13.0118C12.7842 12.8801 12.8935 12.7671 13.0223 12.6798C13.1512 12.5925 13.2967 12.5329 13.4497 12.5047C13.6027 12.4765 13.7599 12.4803 13.9114 12.5159C14.0629 12.5515 14.2053 12.6181 14.3297 12.7116L16.0839 14.0268C16.1622 14.0854 16.2575 14.1169 16.3553 14.1166C16.4532 14.1162 16.5482 14.084 16.6261 14.0249L18.9938 12.2275C19.309 11.9874 19.7217 12.3664 19.5116 12.7022L17.3053 16.1974C17.2224 16.3291 17.113 16.4421 16.9842 16.5294C16.8554 16.6167 16.7099 16.6763 16.5569 16.7045C16.4038 16.7327 16.2466 16.7289 16.0951 16.6933C15.9437 16.6577 15.8012 16.591 15.6768 16.4976L13.9226 15.1824C13.8443 15.1238 13.749 15.0923 13.6512 15.0926C13.5534 15.093 13.4583 15.1251 13.3804 15.1843L11.0128 16.9816C10.6976 17.2218 10.2848 16.8447 10.4968 16.5089Z" fill="url(#paint1_radial_139_3741)"/>
<defs>
<radialGradient id="paint0_radial_139_3741" cx="0" cy="0" r="1" gradientUnits="userSpaceOnUse" gradientTransform="translate(5.025 30.4992) scale(33 32.9991)">
<stop stop-color="#0099FF"/>
<stop offset="0.6" stop-color="#A033FF"/>
<stop offset="0.9" stop-color="#FF5280"/>
<stop offset="1" stop-color="#FF7061"/>
</radialGradient>
<radialGradient id="paint1_radial_139_3741" cx="0" cy="0" r="1" gradientUnits="userSpaceOnUse" gradientTransform="translate(10.0128 22.1091) scale(16.5099)">
<stop stop-color="#0099FF"/>
<stop offset="0.6" stop-color="#A033FF"/>
<stop offset="0.9" stop-color="#FF5280"/>
<stop offset="1" stop-color="#FF7061"/>
</radialGradient>
</defs>
</svg>
