<svg width="30" height="31" viewBox="0 0 30 31" fill="none" xmlns="http://www.w3.org/2000/svg">
<rect y="0.5" width="30" height="30" rx="4" fill="#754A91"/>
<path d="M11.4986 21.6325C11.4986 21.381 11.4986 21.1295 11.4986 20.878C11.5004 20.8678 11.5001 20.8572 11.4976 20.8471C11.4951 20.837 11.4905 20.8274 11.4842 20.8191C11.4778 20.8108 11.4698 20.8039 11.4606 20.7987C11.4515 20.7936 11.4413 20.7904 11.4309 20.7893C10.8018 20.6122 10.2212 20.2968 9.73234 19.8665C9.37614 19.5454 9.07955 19.1649 8.85609 18.7422C8.54113 18.1317 8.33152 17.4733 8.23594 16.7942C8.11753 15.9423 8.0764 15.0817 8.11306 14.2226C8.1211 13.822 8.14177 13.426 8.18771 13.0255C8.26097 12.2644 8.45475 11.5194 8.76192 10.818C9.14123 9.95561 9.82933 9.26288 10.6936 8.87337C11.2823 8.60644 11.9017 8.41156 12.538 8.29305C13.1619 8.17595 13.7937 8.10407 14.4283 8.07799C15.0002 8.05795 15.5729 8.06631 16.144 8.10303C16.9615 8.13721 17.7715 8.27136 18.5557 8.50242C19.1372 8.66849 19.6903 8.9197 20.1968 9.24774C20.6903 9.58343 21.0895 10.0381 21.3567 10.5688C21.6709 11.1887 21.8844 11.8538 21.9895 12.5396C22.0578 12.9468 22.1026 13.3575 22.1239 13.7697C22.1537 14.2806 22.1503 14.7938 22.1308 15.3024C22.1112 15.8111 22.0676 16.3049 22.0044 16.8033C21.9246 17.5513 21.6925 18.2756 21.3223 18.9323C20.8403 19.763 20.0683 20.3903 19.1517 20.696C18.525 20.9134 17.8779 21.0682 17.2201 21.158C16.7389 21.224 16.2566 21.2718 15.7719 21.2911C15.401 21.3082 15.03 21.3036 14.6591 21.2979C14.4489 21.2979 14.2399 21.2774 14.0309 21.2592C14.0104 21.2554 13.9892 21.2577 13.97 21.2658C13.9508 21.2739 13.9344 21.2874 13.923 21.3048C13.5003 21.8077 13.0616 22.297 12.6195 22.784C12.539 22.8729 12.4457 22.9495 12.3427 23.0116C12.2751 23.0555 12.198 23.0831 12.1177 23.0921C12.0374 23.1011 11.956 23.0912 11.8802 23.0633C11.8044 23.0354 11.7363 22.9902 11.6814 22.9314C11.6265 22.8726 11.5863 22.8019 11.5641 22.7248C11.5203 22.588 11.4986 22.4451 11.4998 22.3015C11.4986 22.0762 11.4986 21.8544 11.4986 21.6325ZM12.0097 22.5871L12.0637 22.5371L13.0226 21.4823C13.3916 21.0764 13.7603 20.6702 14.1285 20.2636C14.1466 20.2388 14.171 20.2192 14.1993 20.2068C14.2275 20.1944 14.2586 20.1897 14.2893 20.193C14.4145 20.2056 14.5397 20.2101 14.666 20.2112C15.1024 20.2112 15.5388 20.2112 15.9752 20.1805C16.3714 20.1498 16.7665 20.102 17.1592 20.0406C17.5821 19.9676 18.0007 19.8723 18.4133 19.755C19.3321 19.5103 20.0429 18.9869 20.4897 18.1392C20.7534 17.618 20.9188 17.0534 20.9777 16.4733C21.0476 15.9265 21.0893 15.3766 21.1029 14.8256C21.1233 14.1335 21.0756 13.4411 20.9605 12.7581C20.8807 12.2633 20.7372 11.7807 20.5333 11.3221C20.2738 10.7532 19.9063 10.2821 19.3401 9.9794C18.4719 9.51514 17.5325 9.30805 16.5643 9.20222C16.2899 9.17264 16.0154 9.15671 15.7398 9.14647C15.1754 9.11764 14.6099 9.12068 14.0458 9.15557C13.6402 9.1854 13.2368 9.23935 12.8377 9.31715C12.2508 9.42315 11.683 9.61489 11.153 9.88609C10.8456 10.0399 10.5668 10.2442 10.3284 10.4903C9.94189 10.9183 9.6584 11.4276 9.49921 11.9798C9.31037 12.6229 9.20729 13.2878 9.19258 13.9574C9.15563 14.6271 9.16407 15.2984 9.21785 15.9669C9.25131 16.3648 9.31854 16.7591 9.41882 17.1458C9.56804 17.7483 9.8575 18.3079 10.2641 18.7798C10.703 19.2612 11.2703 19.6099 11.9006 19.7857C11.9798 19.8096 12.0154 19.8369 12.0154 19.9256C12.0085 20.2533 12.0154 20.5811 12.0154 20.9088L12.0097 22.5871Z" fill="white"/>
<path d="M11.2058 12.4237C11.1978 12.1745 11.3344 11.9936 11.4998 11.8309C11.7179 11.6239 11.9582 11.4411 12.2164 11.2859C12.3342 11.2139 12.4742 11.1865 12.6107 11.2087C12.7472 11.2308 12.8711 11.3011 12.9595 11.4065C13.2719 11.7319 13.5515 12.0867 13.7944 12.4658C13.9146 12.6364 14.0055 12.8256 14.0631 13.0257C14.0861 13.1038 14.0876 13.1865 14.0675 13.2654C14.0473 13.3442 14.0061 13.4163 13.9483 13.474C13.8158 13.6029 13.6746 13.7226 13.5256 13.8324C13.4506 13.8917 13.3948 13.9715 13.3652 14.062C13.3356 14.1524 13.3335 14.2495 13.3591 14.3411C13.4511 14.7713 13.6595 15.1686 13.962 15.4903C14.3297 15.935 14.8033 16.2819 15.3402 16.4996C15.4721 16.5668 15.6232 16.5873 15.7685 16.5577C15.8481 16.5362 15.9188 16.4904 15.9706 16.4268C16.051 16.3255 16.1383 16.2277 16.2107 16.1196C16.3045 15.9847 16.4478 15.8916 16.61 15.8599C16.7722 15.8282 16.9404 15.8606 17.0789 15.95C17.4682 16.1738 17.8357 16.4329 18.1768 16.7238C18.2572 16.7921 18.341 16.8581 18.4214 16.9275C18.5165 16.9994 18.5852 17.1002 18.6169 17.2145C18.6487 17.3287 18.6417 17.4502 18.5971 17.5602C18.5261 17.7451 18.4227 17.9161 18.2916 18.0654C18.1287 18.2897 17.9212 18.4787 17.6818 18.6207C17.5674 18.6872 17.4388 18.7263 17.3064 18.7348C17.174 18.7433 17.0414 18.721 16.9192 18.6696C15.9901 18.2989 15.1219 17.7931 14.3433 17.1687C13.5818 16.5476 12.9163 15.8192 12.368 15.0067C11.9067 14.3342 11.5397 13.6027 11.277 12.8322C11.2491 12.7391 11.2261 12.6445 11.2081 12.5489C11.203 12.5074 11.2022 12.4654 11.2058 12.4237Z" fill="white"/>
<path d="M15.1711 11.2128C15.9485 11.227 16.6962 11.5111 17.2838 12.0156C17.8715 12.5201 18.2618 13.2129 18.3867 13.9733C18.437 14.2497 18.4639 14.5299 18.4671 14.8108C18.4671 14.8768 18.4499 14.9245 18.3787 14.9314C18.3075 14.9382 18.2891 14.8779 18.2891 14.8176C18.2998 14.2494 18.1821 13.6861 17.9446 13.1688C17.7446 12.7438 17.4483 12.3702 17.0788 12.0771C16.7093 11.784 16.2766 11.5794 15.8142 11.479C15.5698 11.423 15.3198 11.394 15.0689 11.3926C15.0445 11.393 15.0201 11.3899 14.9966 11.3834C14.9765 11.3778 14.9594 11.3648 14.9489 11.3469C14.9384 11.3291 14.9353 11.3079 14.9403 11.2879C14.9404 11.2784 14.9425 11.269 14.9463 11.2602C14.9502 11.2515 14.9557 11.2437 14.9627 11.2371C14.9696 11.2305 14.9778 11.2254 14.9868 11.222C14.9958 11.2186 15.0053 11.217 15.0149 11.2173C15.0666 11.2105 15.1194 11.2128 15.1711 11.2128Z" fill="white"/>
<path d="M17.3881 14.2991C17.3842 13.9829 17.3056 13.6721 17.1586 13.3915C17.0117 13.1109 16.8003 12.8683 16.5417 12.6833C16.2398 12.4731 15.8888 12.3427 15.5219 12.3043C15.4598 12.2964 15.3978 12.293 15.3347 12.2861C15.2715 12.2793 15.2336 12.2531 15.2393 12.1894C15.2451 12.1257 15.2853 12.1029 15.3542 12.1075C16.3717 12.1689 17.2376 12.739 17.504 13.8007C17.5528 14.0054 17.5771 14.215 17.5764 14.4254C17.5764 14.4447 17.5764 14.4641 17.5764 14.4823C17.5764 14.5392 17.5396 14.5767 17.4834 14.5756C17.4709 14.5751 17.4586 14.5722 17.4473 14.5669C17.436 14.5617 17.4259 14.5542 17.4177 14.5449C17.4094 14.5357 17.4031 14.5248 17.3992 14.5131C17.3953 14.5013 17.3938 14.4889 17.3949 14.4766C17.3858 14.4231 17.3881 14.3685 17.3881 14.2991Z" fill="white"/>
<path d="M15.6053 13.0313C16.1635 13.0689 16.5528 13.3397 16.6596 13.928C16.6725 14.0033 16.6817 14.0793 16.6871 14.1555C16.6871 14.217 16.6734 14.2693 16.6056 14.2693C16.5378 14.2693 16.5149 14.2238 16.5126 14.1555C16.5119 13.93 16.4418 13.7101 16.3116 13.5251C16.1747 13.3576 15.9783 13.2485 15.7627 13.2202C15.7144 13.2113 15.6657 13.2052 15.6168 13.202C15.5364 13.202 15.4916 13.1622 15.502 13.1007C15.5123 13.0393 15.5605 13.0279 15.6053 13.0313Z" fill="white"/>
</svg>
