<svg width="50" height="50" viewBox="0 0 50 50" fill="none" xmlns="http://www.w3.org/2000/svg">
<path fill-rule="evenodd" clip-rule="evenodd" d="M24.2448 2.22466C24.7304 2.03579 25.2693 2.03579 25.7549 2.22466L44.5049 9.51633C45.332 9.83798 45.8646 10.6483 45.8318 11.5351L45.4718 21.2535C45.0287 33.2163 37.3209 43.6937 26.0324 47.6779L25.6932 47.7976C25.2445 47.9559 24.7552 47.9559 24.3065 47.7976L23.9673 47.6779C12.6788 43.6937 4.97095 33.2163 4.52788 21.2535L4.16794 11.5351C4.1351 10.6483 4.66765 9.83798 5.49475 9.51633L24.2448 2.22466ZM8.38662 12.8624L8.69169 21.0993C9.06681 31.2275 15.5172 40.1135 24.9998 43.6207C34.4825 40.1135 40.9329 31.2275 41.308 21.0993L41.6131 12.8624L24.9998 6.40167L8.38662 12.8624Z" fill="#00812A"/>
<path fill-rule="evenodd" clip-rule="evenodd" d="M38.973 18.1396L22.3063 34.8063C21.4927 35.6199 20.1736 35.6199 19.36 34.8063L12.0684 27.5146L15.0146 24.5684L20.8332 30.3869L36.0267 15.1934L38.973 18.1396Z" fill="#00812A"/>
</svg>
