<svg width="50" height="50" viewBox="0 0 50 50" fill="none" xmlns="http://www.w3.org/2000/svg">
<path d="M22.9004 30.8436C24.9945 29.4495 26.5844 27.4184 27.435 25.0508C28.2855 22.6831 28.3515 20.1046 27.6233 17.6966C26.895 15.2885 25.4111 13.1787 23.3911 11.6792C21.371 10.1797 18.922 9.37012 16.4063 9.37012C13.8905 9.37012 11.4415 10.1797 9.42143 11.6792C7.40138 13.1787 5.9175 15.2885 5.18925 17.6966C4.46099 20.1046 4.527 22.6831 5.37754 25.0508C6.22808 27.4184 7.81797 29.4495 9.91212 30.8436C6.12401 32.2398 2.88888 34.8234 0.689459 38.2089C0.573864 38.3807 0.493572 38.5737 0.45325 38.7768C0.412928 38.9799 0.413379 39.189 0.454578 39.392C0.495777 39.5949 0.576902 39.7876 0.693237 39.9589C0.809572 40.1302 0.958797 40.2767 1.13224 40.3898C1.30568 40.5029 1.49987 40.5805 1.70354 40.6179C1.9072 40.6553 2.11627 40.6519 2.31859 40.6078C2.52091 40.5637 2.71245 40.4798 2.88207 40.361C3.05169 40.2422 3.19601 40.0909 3.30665 39.9159C4.72538 37.7338 6.66672 35.9407 8.95437 34.6994C11.242 33.4581 13.8035 32.808 16.4063 32.808C19.009 32.808 21.5705 33.4581 23.8581 34.6994C26.1458 35.9407 28.0871 37.7338 29.5059 39.9159C29.735 40.2565 30.0891 40.4932 30.4914 40.5749C30.8937 40.6566 31.312 40.5766 31.6559 40.3524C31.9997 40.1281 32.2415 39.7775 32.3289 39.3764C32.4163 38.9753 32.3424 38.5559 32.1231 38.2089C29.9236 34.8234 26.6885 32.2398 22.9004 30.8436ZM7.81251 21.0936C7.81251 19.3939 8.31652 17.7324 9.26081 16.3192C10.2051 14.906 11.5473 13.8045 13.1176 13.154C14.6879 12.5036 16.4158 12.3334 18.0828 12.665C19.7498 12.9966 21.2811 13.8151 22.483 15.0169C23.6848 16.2188 24.5033 17.75 24.8349 19.4171C25.1665 21.0841 24.9963 22.812 24.3458 24.3823C23.6954 25.9526 22.5939 27.2948 21.1807 28.2391C19.7675 29.1834 18.1059 29.6874 16.4063 29.6874C14.1278 29.6848 11.9435 28.7785 10.3324 27.1675C8.72133 25.5564 7.81509 23.372 7.81251 21.0936ZM48.8555 40.371C48.5084 40.5973 48.0856 40.6765 47.6802 40.5911C47.2747 40.5058 46.9198 40.2629 46.6934 39.9159C45.2763 37.7325 43.3352 35.9387 41.0471 34.6979C38.759 33.4571 36.1966 32.8089 33.5938 32.8124C33.1794 32.8124 32.7819 32.6478 32.4889 32.3547C32.1959 32.0617 32.0313 31.6643 32.0313 31.2499C32.0313 30.8355 32.1959 30.438 32.4889 30.145C32.7819 29.852 33.1794 29.6874 33.5938 29.6874C34.8593 29.6862 36.109 29.4055 37.2535 28.8653C38.398 28.3252 39.4091 27.5389 40.2145 26.5627C41.0199 25.5865 41.5998 24.4445 41.9126 23.2182C42.2255 21.9919 42.2637 20.7117 42.0244 19.4689C41.7852 18.2262 41.2744 17.0516 40.5285 16.0292C39.7827 15.0067 38.8203 14.1616 37.71 13.5542C36.5997 12.9469 35.3689 12.5922 34.1057 12.5156C32.8425 12.439 31.5779 12.6424 30.4024 13.1112C30.2107 13.1941 30.0044 13.2377 29.7955 13.2394C29.5867 13.2412 29.3797 13.2011 29.1867 13.1215C28.9936 13.0419 28.8185 12.9244 28.6716 12.7759C28.5248 12.6275 28.4092 12.4511 28.3316 12.2573C28.2541 12.0634 28.2161 11.8559 28.2201 11.6472C28.2241 11.4384 28.2699 11.2325 28.3548 11.0418C28.4397 10.851 28.5619 10.6792 28.7144 10.5364C28.8668 10.3937 29.0463 10.283 29.2422 10.2108C31.9325 9.13786 34.9249 9.09925 37.6421 10.1024C40.3592 11.1056 42.6086 13.0795 43.9563 15.6433C45.3039 18.2071 45.6544 21.1791 44.94 23.986C44.2257 26.793 42.4972 29.2359 40.0879 30.8436C43.876 32.2398 47.1111 34.8234 49.3106 38.2089C49.5369 38.5559 49.6161 38.9787 49.5307 39.3841C49.4454 39.7896 49.2025 40.1446 48.8555 40.371Z" fill="#00812A"/>
</svg>
